<svg xmlns="http://www.w3.org/2000/svg" viewBox="0 0 512 512" role="img" aria-label="Syntax Asia logo">
  <rect width="512" height="512" rx="34" fill="#2448ad"/>
  <path d="M58 224c34-83 122-151 246-170 31-5 58-5 82-1-64 6-134 28-202 67-65 37-111 81-126 104z" fill="#fff"/>
  <path d="M57 320c8-88 137-184 288-216 63-13 117-8 153 12-72-2-159 20-241 63-98 51-169 111-200 141z" fill="#fff"/>
  <path d="M92 406c6-78 117-151 259-169 54-7 102-1 136 16-68 2-144 21-210 53-84 41-143 80-185 100z" fill="#fff"/>
  <path d="M174 457c18-53 93-96 189-105 42-4 79 0 109 13-45 2-100 17-147 40-57 27-98 49-151 52z" fill="#fff"/>
</svg>
